<mxfile host="app.diagrams.net" modified="2023-10-14T15:34:29.363Z" agent="Mozilla/5.0 (Windows NT 10.0; Win64; x64) AppleWebKit/537.36 (KHTML, like Gecko) Chrome/116.0.0.0 Safari/537.36 OPR/102.0.0.0" etag="pNYXc4Hjxdy2RyisGP-d" version="22.0.4" type="github">
  <diagram id="R2lEEEUBdFMjLlhIrx00" name="Page-1">
    <mxGraphModel dx="2243" dy="766" grid="1" gridSize="10" guides="1" tooltips="1" connect="1" arrows="1" fold="1" page="1" pageScale="1" pageWidth="850" pageHeight="1100" math="0" shadow="0" extFonts="Permanent Marker^https://fonts.googleapis.com/css?family=Permanent+Marker">
      <root>
        <mxCell id="0" />
        <mxCell id="1" parent="0" />
        <mxCell id="ep6f4sllTVNEnGvJoixF-1" value="" style="swimlane;startSize=0;" parent="1" vertex="1">
          <mxGeometry x="-80" y="100" width="690" height="490" as="geometry">
            <mxRectangle x="300" y="90" width="50" height="40" as="alternateBounds" />
          </mxGeometry>
        </mxCell>
        <mxCell id="ep6f4sllTVNEnGvJoixF-2" value="&lt;font style=&quot;font-size: 18px;&quot;&gt;Sistema EasyGym&lt;/font&gt;" style="text;html=1;strokeColor=none;fillColor=none;align=center;verticalAlign=middle;whiteSpace=wrap;rounded=0;" parent="ep6f4sllTVNEnGvJoixF-1" vertex="1">
          <mxGeometry x="166.25" y="-10" width="317.5" height="80" as="geometry" />
        </mxCell>
        <mxCell id="ep6f4sllTVNEnGvJoixF-7" value="Realizar Login" style="ellipse;whiteSpace=wrap;html=1;align=center;fontStyle=4;" parent="ep6f4sllTVNEnGvJoixF-1" vertex="1">
          <mxGeometry x="252.5" y="50" width="145" height="70" as="geometry" />
        </mxCell>
        <mxCell id="ep6f4sllTVNEnGvJoixF-23" value="Atualizar informações do aluno" style="ellipse;whiteSpace=wrap;html=1;align=center;" parent="ep6f4sllTVNEnGvJoixF-1" vertex="1">
          <mxGeometry x="100" y="120" width="140" height="60" as="geometry" />
        </mxCell>
        <mxCell id="ep6f4sllTVNEnGvJoixF-27" value="Visualizar horários de aulas" style="ellipse;whiteSpace=wrap;html=1;align=center;" parent="ep6f4sllTVNEnGvJoixF-1" vertex="1">
          <mxGeometry x="180" y="207.5" width="130" height="75" as="geometry" />
        </mxCell>
        <mxCell id="ep6f4sllTVNEnGvJoixF-32" style="edgeStyle=orthogonalEdgeStyle;rounded=0;orthogonalLoop=1;jettySize=auto;html=1;entryX=0.5;entryY=1;entryDx=0;entryDy=0;" parent="ep6f4sllTVNEnGvJoixF-1" source="ep6f4sllTVNEnGvJoixF-30" target="ep6f4sllTVNEnGvJoixF-27" edge="1">
          <mxGeometry relative="1" as="geometry" />
        </mxCell>
        <mxCell id="ep6f4sllTVNEnGvJoixF-30" value="Reservar aula" style="ellipse;whiteSpace=wrap;html=1;align=center;dashed=1;" parent="ep6f4sllTVNEnGvJoixF-1" vertex="1">
          <mxGeometry x="195" y="320" width="100" height="40" as="geometry" />
        </mxCell>
        <mxCell id="ep6f4sllTVNEnGvJoixF-34" value="Registrar presença na aula" style="ellipse;whiteSpace=wrap;html=1;align=center;" parent="ep6f4sllTVNEnGvJoixF-1" vertex="1">
          <mxGeometry x="370" y="150" width="130" height="70" as="geometry" />
        </mxCell>
        <mxCell id="ep6f4sllTVNEnGvJoixF-36" value="Registrar agenda de treinos" style="ellipse;whiteSpace=wrap;html=1;align=center;" parent="ep6f4sllTVNEnGvJoixF-1" vertex="1">
          <mxGeometry x="145" y="390" width="135" height="50" as="geometry" />
        </mxCell>
        <mxCell id="ep6f4sllTVNEnGvJoixF-38" value="Gerenciamento de exercícios" style="ellipse;whiteSpace=wrap;html=1;align=center;" parent="ep6f4sllTVNEnGvJoixF-1" vertex="1">
          <mxGeometry x="320" y="300" width="130" height="60" as="geometry" />
        </mxCell>
        <mxCell id="OJPzT65I9S5LR3rYNlQK-4" value="Gerenciamento de usuários" style="ellipse;whiteSpace=wrap;html=1;" vertex="1" parent="ep6f4sllTVNEnGvJoixF-1">
          <mxGeometry x="480" y="375" width="120" height="80" as="geometry" />
        </mxCell>
        <mxCell id="ep6f4sllTVNEnGvJoixF-9" style="edgeStyle=orthogonalEdgeStyle;rounded=0;orthogonalLoop=1;jettySize=auto;html=1;entryX=0;entryY=0.5;entryDx=0;entryDy=0;" parent="1" source="ep6f4sllTVNEnGvJoixF-3" target="ep6f4sllTVNEnGvJoixF-7" edge="1">
          <mxGeometry relative="1" as="geometry" />
        </mxCell>
        <mxCell id="ep6f4sllTVNEnGvJoixF-25" style="edgeStyle=orthogonalEdgeStyle;rounded=0;orthogonalLoop=1;jettySize=auto;html=1;entryX=0;entryY=0.5;entryDx=0;entryDy=0;" parent="1" source="ep6f4sllTVNEnGvJoixF-3" target="ep6f4sllTVNEnGvJoixF-23" edge="1">
          <mxGeometry relative="1" as="geometry" />
        </mxCell>
        <mxCell id="ep6f4sllTVNEnGvJoixF-28" style="edgeStyle=orthogonalEdgeStyle;rounded=0;orthogonalLoop=1;jettySize=auto;html=1;entryX=0;entryY=0.5;entryDx=0;entryDy=0;" parent="1" source="ep6f4sllTVNEnGvJoixF-3" target="ep6f4sllTVNEnGvJoixF-27" edge="1">
          <mxGeometry relative="1" as="geometry" />
        </mxCell>
        <mxCell id="ep6f4sllTVNEnGvJoixF-37" style="edgeStyle=orthogonalEdgeStyle;rounded=0;orthogonalLoop=1;jettySize=auto;html=1;entryX=0;entryY=0.5;entryDx=0;entryDy=0;" parent="1" source="ep6f4sllTVNEnGvJoixF-3" target="ep6f4sllTVNEnGvJoixF-36" edge="1">
          <mxGeometry relative="1" as="geometry" />
        </mxCell>
        <mxCell id="ep6f4sllTVNEnGvJoixF-3" value="Aluno" style="whiteSpace=wrap;html=1;align=center;" parent="1" vertex="1">
          <mxGeometry x="-220" y="165" width="100" height="40" as="geometry" />
        </mxCell>
        <mxCell id="ep6f4sllTVNEnGvJoixF-33" style="edgeStyle=orthogonalEdgeStyle;rounded=0;orthogonalLoop=1;jettySize=auto;html=1;entryX=1;entryY=0.5;entryDx=0;entryDy=0;" parent="1" source="ep6f4sllTVNEnGvJoixF-5" target="ep6f4sllTVNEnGvJoixF-27" edge="1">
          <mxGeometry relative="1" as="geometry" />
        </mxCell>
        <mxCell id="ep6f4sllTVNEnGvJoixF-35" style="edgeStyle=orthogonalEdgeStyle;rounded=0;orthogonalLoop=1;jettySize=auto;html=1;" parent="1" source="ep6f4sllTVNEnGvJoixF-5" target="ep6f4sllTVNEnGvJoixF-34" edge="1">
          <mxGeometry relative="1" as="geometry" />
        </mxCell>
        <mxCell id="OJPzT65I9S5LR3rYNlQK-1" style="edgeStyle=orthogonalEdgeStyle;rounded=0;orthogonalLoop=1;jettySize=auto;html=1;" edge="1" parent="1" source="ep6f4sllTVNEnGvJoixF-5" target="ep6f4sllTVNEnGvJoixF-7">
          <mxGeometry relative="1" as="geometry">
            <mxPoint x="340" y="190" as="targetPoint" />
          </mxGeometry>
        </mxCell>
        <mxCell id="OJPzT65I9S5LR3rYNlQK-2" style="edgeStyle=orthogonalEdgeStyle;rounded=0;orthogonalLoop=1;jettySize=auto;html=1;entryX=1;entryY=0.5;entryDx=0;entryDy=0;" edge="1" parent="1" source="ep6f4sllTVNEnGvJoixF-5" target="ep6f4sllTVNEnGvJoixF-38">
          <mxGeometry relative="1" as="geometry" />
        </mxCell>
        <mxCell id="OJPzT65I9S5LR3rYNlQK-5" style="edgeStyle=orthogonalEdgeStyle;rounded=0;orthogonalLoop=1;jettySize=auto;html=1;entryX=1;entryY=0.5;entryDx=0;entryDy=0;" edge="1" parent="1" source="ep6f4sllTVNEnGvJoixF-5" target="OJPzT65I9S5LR3rYNlQK-4">
          <mxGeometry relative="1" as="geometry" />
        </mxCell>
        <mxCell id="ep6f4sllTVNEnGvJoixF-5" value="Professor" style="whiteSpace=wrap;html=1;align=center;" parent="1" vertex="1">
          <mxGeometry x="660" y="165" width="100" height="40" as="geometry" />
        </mxCell>
        <mxCell id="OJPzT65I9S5LR3rYNlQK-6" style="edgeStyle=orthogonalEdgeStyle;rounded=0;orthogonalLoop=1;jettySize=auto;html=1;exitX=0.5;exitY=1;exitDx=0;exitDy=0;" edge="1" parent="1" source="ep6f4sllTVNEnGvJoixF-1" target="ep6f4sllTVNEnGvJoixF-1">
          <mxGeometry relative="1" as="geometry" />
        </mxCell>
      </root>
    </mxGraphModel>
  </diagram>
</mxfile>
